<?xml version="1.0" encoding="utf-8"?>
<svg version="1.1" xmlns="http://www.w3.org/2000/svg" xmlns:xlink="http://www.w3.org/1999/xlink" x="0px" y="0px"
	 viewBox="0 0 1024 1024" height="1024" width="1024" style="enable-background:new 0 0 1024 1024;" xml:space="preserve">
<style type="text/css">
	.st0{fill:#1B1F23;}
	.st1{fill:#FFFFFF;}
	.st2{filter:url(#Adobe_OpacityMaskFilter);}
	.st3{mask:url(#SVGID_1_);}
</style>
<g id="Livello_1">
	<path class="st0" d="M512,0C229.1,0,0,229.1,0,512c0,226.6,146.6,417.9,350.1,485.8c25.6,4.5,35.2-10.9,35.2-24.3
		c0-12.2-0.6-52.5-0.6-95.4c-128.6,23.7-161.9-31.4-172.2-60.2c-5.8-14.7-30.7-60.2-52.5-72.3c-17.9-9.6-43.5-33.3-0.6-33.9
		c40.3-0.6,69.1,37.1,78.7,52.5c46.1,77.4,119.7,55.7,149.1,42.2c4.5-33.3,17.9-55.7,32.6-68.5c-113.9-12.8-233-57-233-252.8
		c0-55.7,19.8-101.8,52.5-137.6c-5.1-12.8-23-65.3,5.1-135.7c0,0,42.9-13.4,140.8,52.5c41-11.5,84.5-17.3,128-17.3s87,5.8,128,17.3
		c97.9-66.6,140.8-52.5,140.8-52.5c28.2,70.4,10.2,122.9,5.1,135.7c32.6,35.8,52.5,81.3,52.5,137.6c0,196.5-119.7,240-233.6,252.8
		c1.2,1.1,2.5,2.5,3.8,4.2c13,13.3,24.3,34.4,28.4,64.5c29.4,13.5,103,35.2,149.1-42.2c9.6-15.4,38.4-53.1,78.7-52.5
		c42.9,0.6,17.3,24.3-0.6,33.9c-21.8,12.1-46.7,57.6-52.5,72.3c-10.3,28.8-43.6,83.9-172.2,60.2c0,17.2-0.1,33.9-0.2,48.6
		c0,5.7-0.1,10.5-0.1,14.7c-0.1,14.9-0.3,26.4-0.3,32l-0.1-0.5c0,0.1,0,0.1,0,0.2c0,13.4,9.6,29.4,35.2,24.3
		C877.4,929.9,1024,737.9,1024,512C1024,229.1,794.9,0,512,0z"/>
</g>
<g id="Livello_3">

		<rect x="23.6" y="510.5" transform="matrix(-0.7156 -0.6985 0.6985 -0.7156 -65.2039 1367.5916)" class="st1" width="444.3" height="373.2"/>
	<g>
		<path class="st0" d="M341.7,953l-42.2,41.9c-8.4,8.4-19.6,13-31.5,13c-12,0-23.3-4.7-31.7-13.2L-57.4,699.3
			c-17.4-17.5-17.3-45.9,0.2-63.2L189,391.3c8.4-8.4,19.6-13,31.5-13c12,0,23.3,4.7,31.7,13.2L545.9,687c8.4,8.4,13,19.7,13,31.7
			c0,12-4.7,23.2-13.2,31.6l-116,115.3l58.9,59.3l-87.8-0.3l-0.3,87.8L341.7,953z M268,949.1l35.1-34.8l-24.5-24.6l88.1-87.5
			l24.5,24.6l108.9-108.3l-34.8-35.1L233.2,914L268,949.1z M219.2,850.7l207.4-206.1L220.5,437.2L13.1,643.3L219.2,850.7z
			 M180.7,791.1l38.8-38.6l38.6,38.8l-38.8,38.6L180.7,791.1z M131.8,741.9l38.8-38.6l38.6,38.8l-38.8,38.6L131.8,741.9z
			 M82.8,692.6l38.8-38.6l38.6,38.8l-38.8,38.6L82.8,692.6z M33.9,643.4l38.8-38.6l38.6,38.8l-38.8,38.6L33.9,643.4z"/>
		<path class="st1" d="M220.6,388.3c8.9,0,17.9,3.4,24.6,10.2L538.8,694c13.5,13.5,13.4,35.6-0.2,49.1L415.6,865.5l48.9,49.2
			l-73.6-0.2l-0.2,73.6l-48.9-49.2l-49.2,48.9c-6.7,6.7-15.6,10-24.5,10c-8.9,0-17.9-3.4-24.6-10.2L-50.3,692.2
			c-13.5-13.5-13.4-35.6,0.2-49.1l246.2-244.7C202.8,391.7,211.7,388.3,220.6,388.3 M219.2,864.9l221.6-220.2L220.6,423L-1,643.3
			L219.2,864.9 M268,963.2l49.2-48.9l-24.5-24.6l73.9-73.4l24.5,24.6l123.1-122.4l-48.9-49.2L219,914L268,963.2 M72.7,618.9
			l24.5,24.6L72.5,668L48,643.4L72.7,618.9 M121.6,668.2l24.5,24.6l-24.6,24.5L97,692.7L121.6,668.2 M170.6,717.4l24.5,24.6
			l-24.6,24.5l-24.5-24.6L170.6,717.4 M219.5,766.7l24.5,24.6l-24.6,24.5l-24.5-24.6L219.5,766.7 M220.6,368.3L220.6,368.3
			c-14.6,0-28.3,5.6-38.6,15.9L-64.2,628.9c-21.4,21.3-21.5,56-0.2,77.4l293.7,295.5c10.3,10.4,24.1,16.1,38.8,16.1
			c14.6,0,28.3-5.6,38.6-15.9l35.1-34.8l34.8,35.1l34,34.2l0.2-48.3l0.2-53.6l53.6,0.2l48.3,0.2l-34-34.2l-34.8-35.1l108.9-108.3
			c21.4-21.3,21.5-56,0.2-77.4L259.4,384.5C249.1,374.1,235.3,368.3,220.6,368.3L220.6,368.3z M76.5,594.4l144-143.1l192,193.2
			l-144,143.1l-10.4-10.4l-24.5-24.6l-10.4-10.4l0,0L209.2,728l-24.5-24.6l-10.4-10.4l0,0l-14.1-14.2l-24.5-24.6l-10.4-10.4l0,0
			l-14.1-14.2l-24.5-24.6L76.5,594.4L76.5,594.4z M370.4,791.7l94.7-94.2l20.7,20.9l-94.7,94.2l-10.4-10.4L370.4,791.7L370.4,791.7z
			 M247.3,914.1l20.9-20.7l10.4,10.4l10.4,10.4l-20.9,20.7L247.3,914.1L247.3,914.1z"/>
	</g>
</g>
<g id="Livello_2">
	<g>
		<path class="st0" d="M830.2,502.5l65.2-65.2c10.7-10.8,25-16.7,40.2-16.7c15.1,0,29.4,5.9,40.1,16.6l66.9,66.9
			c22.2,22.2,22.2,58.3,0,80.4l-65.2,65.2L830.2,502.5z"/>
		<path class="st1" d="M935.6,435.6c10.7,0,21.4,4.1,29.6,12.2c0,0,0,0,0.1,0.1l66.8,66.8c16.4,16.4,16.4,42.8,0,59.2l-54.6,54.6
			l-126-126l54.6-54.6C914.2,439.7,924.9,435.6,935.6,435.6 M935.6,405.6c-19.2,0-37.3,7.5-50.8,21.1l-54.6,54.6L809,502.5
			l21.2,21.2l126,126l21.2,21.2l21.2-21.2l54.6-54.6c13.6-13.6,21.1-31.6,21.1-50.8c0-19.2-7.5-37.2-21.1-50.8l-66.8-66.8l-0.1-0.1
			C972.8,413,954.8,405.6,935.6,405.6L935.6,405.6z"/>
	</g>
	<defs>
		<filter id="Adobe_OpacityMaskFilter" filterUnits="userSpaceOnUse" x="443.4" y="502.1" width="534.5" height="534.5">
			<feFlood  style="flood-color:white;flood-opacity:1" result="back"/>
			<feBlend  in="SourceGraphic" in2="back" mode="normal"/>
		</filter>
	</defs>
	<mask maskUnits="userSpaceOnUse" x="443.4" y="502.1" width="534.5" height="534.5" id="SVGID_1_">
		<g class="st2">
			<polygon points="599.4,964.5 515.4,964.5 515.4,880.5 557.4,880.5 557.4,922.5 599.4,922.5 			"/>
		</g>
	</mask>
	<g class="st3">
		<polygon class="st0" points="458.4,1021.5 458.4,874.3 809.4,523.3 956.7,670.5 605.6,1021.5 		"/>
		<path class="st1" d="M809.4,544.5l126,126l-336,336h-126v-126L809.4,544.5 M809.4,502.1l-21.2,21.2l-336,336l-8.8,8.8v12.4v126v30
			h30h126h12.4l8.8-8.8l336-336l21.2-21.2l-21.2-21.2l-126-126L809.4,502.1L809.4,502.1z"/>
	</g>
	<polygon class="st1" points="599.4,964.5 515.4,964.5 515.4,880.5 557.4,880.5 557.4,922.5 599.4,922.5 	"/>
</g>
</svg>
